<svg width="47" height="47" viewBox="0 0 47 47" fill="none" xmlns="http://www.w3.org/2000/svg">
<path d="M23.4375 0C36.3281 0 46.875 10.5469 46.875 23.4375C46.875 36.4258 36.3281 46.875 23.4375 46.875C10.4492 46.875 0 36.4258 0 23.4375C0 10.5469 10.4492 0 23.4375 0ZM34.7656 25.4883C35.4492 25.0977 35.9375 24.3164 35.9375 23.5352C35.9375 22.6562 35.4492 21.875 34.7656 21.4844L20.7031 12.8906C20.3125 12.6953 19.9219 12.5977 19.5312 12.5977C18.1641 12.5977 17.1875 13.6719 17.1875 14.9414V32.1289C17.1875 33.3008 18.1641 34.4727 19.5312 34.4727C19.9219 34.4727 20.3125 34.2773 20.7031 34.082L34.7656 25.4883Z" fill="white"/>
</svg>
