<svg width="47" height="47" viewBox="0 0 47 47" fill="none" xmlns="http://www.w3.org/2000/svg">
<path d="M23.4375 0C36.3281 0 46.875 10.5469 46.875 23.4375C46.875 36.4258 36.3281 46.875 23.4375 46.875C10.4492 46.875 0 36.4258 0 23.4375C0 10.5469 10.4492 0 23.4375 0ZM23.4375 37.5C25.1953 37.5 26.5625 36.1328 26.5625 34.375C26.5625 32.6172 25.1953 31.25 23.4375 31.25C21.6797 31.25 20.3125 32.6172 20.3125 34.375C20.3125 36.1328 21.6797 37.5 23.4375 37.5ZM30.2734 23.6328C32.3242 22.3633 33.5938 20.1172 33.5938 17.7734C33.5938 13.9648 30.5664 10.9375 26.7578 10.9375H21.6797C17.8711 10.9375 14.8438 13.9648 14.8438 17.7734C14.8438 19.043 15.918 20.1172 17.1875 20.1172C18.457 20.1172 19.5312 19.043 19.5312 17.7734C19.5312 16.6016 20.5078 15.625 21.6797 15.625H26.7578C27.9297 15.625 28.9062 16.6016 28.9062 17.7734C28.9062 18.5547 28.5156 19.2383 27.832 19.6289L22.2656 22.9492C21.4844 23.4375 21.0938 24.2188 21.0938 25V26.5625C21.0938 27.832 22.168 28.9062 23.4375 28.9062C24.707 28.9062 25.7812 27.832 25.7812 26.5625V26.3672L30.2734 23.6328Z" fill="white"/>
</svg>
