<svg width="63" height="38" viewBox="0 0 63 38" fill="none" xmlns="http://www.w3.org/2000/svg">
<path d="M56.25 0C59.668 0 62.5 2.83203 62.5 6.25V31.25C62.5 34.7656 59.668 37.5 56.25 37.5H43.6523C41.2109 37.5 38.9648 36.1328 37.9883 33.8867L35.2539 27.832C34.4727 26.1719 32.9102 25 31.25 25C29.4922 25 27.9297 26.1719 27.1484 27.832L24.4141 33.8867C23.4375 36.1328 21.1914 37.5 18.75 37.5H6.25C2.73438 37.5 0 34.7656 0 31.25V6.25C0 2.83203 2.73438 0 6.25 0H56.25ZM15.625 23.4375C19.043 23.4375 21.875 20.7031 21.875 17.1875C21.875 13.7695 19.043 10.9375 15.625 10.9375C12.1094 10.9375 9.375 13.7695 9.375 17.1875C9.375 20.7031 12.1094 23.4375 15.625 23.4375ZM46.875 23.4375C50.293 23.4375 53.125 20.7031 53.125 17.1875C53.125 13.7695 50.293 10.9375 46.875 10.9375C43.3594 10.9375 40.625 13.7695 40.625 17.1875C40.625 20.7031 43.3594 23.4375 46.875 23.4375Z" fill="white"/>
</svg>
